<?xml version="1.0" encoding="UTF-8" standalone="no"?>
<!-- Created with Inkscape (http://www.inkscape.org/) -->

<svg
   width="20"
   height="20"
   viewBox="0 0 5.2916665 5.2916668"
   version="1.1"
   id="svg5"
   sodipodi:docname="arrow-icon.svg"
   inkscape:version="1.1.2 (b8e25be833, 2022-02-05)"
   xmlns:inkscape="http://www.inkscape.org/namespaces/inkscape"
   xmlns:sodipodi="http://sodipodi.sourceforge.net/DTD/sodipodi-0.dtd"
   xmlns="http://www.w3.org/2000/svg"
   xmlns:svg="http://www.w3.org/2000/svg">
  <sodipodi:namedview
     id="namedview7"
     pagecolor="#ffffff"
     bordercolor="#999999"
     borderopacity="1"
     inkscape:pageshadow="0"
     inkscape:pageopacity="0"
     inkscape:pagecheckerboard="0"
     inkscape:document-units="mm"
     showgrid="false"
     units="px"
     width="20px"
     inkscape:zoom="20.48"
     inkscape:cx="6.2744141"
     inkscape:cy="13.476563"
     inkscape:window-width="1920"
     inkscape:window-height="1017"
     inkscape:window-x="-1928"
     inkscape:window-y="-8"
     inkscape:window-maximized="1"
     inkscape:current-layer="layer1" />
  <defs
     id="defs2" />
  <g
     inkscape:label="Vrstva 1"
     inkscape:groupmode="layer"
     id="layer1">
    <path
       style="fill:#000000;stroke-width:0.264583"
       id="path908"
       d="" />
    <path
       style="fill:#eb9c00;fill-opacity:1;stroke-width:0.00514231"
       d="M 3.130595,5.2021512 C 3.0187672,5.1707408 2.9461014,5.0575781 2.9651688,4.9445331 c 0.012487,-0.074032 0.00818,-0.069037 0.40314,-0.467558 L 3.7274056,4.1146412 H 2.360207 c -1.2190533,0 -1.37051963,-8.652e-4 -1.39784737,-0.00798 -0.1357649,-0.035353 -0.2073452,-0.1904134 -0.1470371,-0.3185184 0.026132,-0.055509 0.0761,-0.09894 0.1410477,-0.1225948 0.01234,-0.00449 0.36208107,-0.00665 1.39205257,-0.00857 L 3.723996,3.654408 3.4488568,3.3767222 C 3.0174059,2.9412778 3.000292,2.9233182 2.9845153,2.8894288 2.9078213,2.7246877 3.0437983,2.5386229 3.2207517,2.5661721 c 0.078001,0.012144 0.041244,-0.021466 0.6664013,0.6093636 0.4081066,0.4118098 0.5709702,0.5794069 0.5810259,0.5979133 0.017527,0.032256 0.029738,0.078395 0.029738,0.1123639 0,0.033841 -0.012152,0.079905 -0.029738,0.1127271 C 4.4578779,4.017766 4.3076642,4.1725698 3.8964685,4.5877215 3.5897124,4.8974288 3.3284373,5.158317 3.3158571,5.1674733 3.2660691,5.2037099 3.1880957,5.2183076 3.130595,5.2021565 Z"
       id="path1074" />
  </g>
</svg>
